<?xml version="1.0" encoding="UTF-8"?>
<svg width="91px" height="24px" viewBox="0 0 91 24" version="1.1" xmlns="http://www.w3.org/2000/svg" xmlns:xlink="http://www.w3.org/1999/xlink">
    <g id="logo-stadia-wordmark" stroke="none" stroke-width="1" fill="none" fill-rule="evenodd">
        <path d="M25.766257,20.9800601 L23.5528728,20.9800601 C23.3856898,20.9800601 23.2253542,20.9135347 23.1071379,20.7951187 C22.9889217,20.6767027 22.9225085,20.5160962 22.9225085,20.3486307 L22.9225085,7.52444052 L17.5004281,7.52444052 C17.1533986,7.52287231 16.8729041,7.24063051 16.8729076,6.89301105 L16.8729076,4.90661939 C16.8729076,4.55789052 17.1551313,4.27518992 17.5032719,4.27518992 L31.8196496,4.27518992 C32.1677901,4.27518992 32.4500138,4.55789052 32.4500138,4.90661939 L32.4500138,6.89301105 C32.4500138,7.24173991 32.1677901,7.52444052 31.8196496,7.52444052 L26.3966212,7.52444052 L26.3966212,20.3486307 C26.3966212,20.5160962 26.3302081,20.6767027 26.2119918,20.7951187 C26.0937756,20.9135347 25.93344,20.9800601 25.766257,20.9800601 Z M15.4188042,19.7675256 C16.2302205,18.9547382 16.5619911,17.9207131 16.5619911,16.2001865 L16.5619911,15.7624587 C16.5619911,14.040033 16.2302205,13.0088565 15.4188042,12.1941701 C14.5590443,11.3320077 13.419649,10.980686 11.4896917,10.980686 L4.48174759,10.980686 C4.20302876,10.9806862 3.93573935,10.8697135 3.73874429,10.6722074 C3.54174923,10.4747014 3.43120494,10.2068603 3.43145649,9.92767058 L3.43145649,8.57650646 C3.43145649,7.99546649 3.90168783,7.52444052 4.48174759,7.52444052 L14.5144922,7.52444052 C14.8626328,7.52444052 15.1448565,7.24173991 15.1448565,6.89301105 L15.1448565,4.90661939 C15.1448565,4.55789052 14.8626328,4.27518992 14.5144922,4.27518992 L5.07229936,4.27518992 C3.14139415,4.27518992 2.00294684,4.62651158 1.14223897,5.48867392 C0.330822739,6.30146133 0,7.33548644 0,9.05601306 L0,9.40163761 C0,11.1269118 0.330822739,12.1571388 1.14223897,12.9699263 C2.00294684,13.8320886 3.14139415,14.1834103 5.07229936,14.1834103 L12.1058372,14.1834103 C12.6860505,14.18341 13.1565531,14.6542827 13.1570763,15.2354762 L13.1570763,16.6777941 C13.1570763,17.2593584 12.6864205,17.7308095 12.1058372,17.7308095 L1.53941584,17.7308095 C1.19127528,17.7308095 0.909051595,18.0135101 0.909051595,18.362239 L0.909051595,20.3486307 C0.909051595,20.5160962 0.97546478,20.6767027 1.09368101,20.7951187 C1.21189724,20.9135347 1.37223285,20.9800601 1.53941584,20.9800601 L11.4925355,20.9800601 C13.420597,20.9800601 14.5590443,20.6287385 15.4188042,19.7675256 Z M65.5010065,12.5815734 L65.5010065,12.6964651 C65.5010065,15.9153311 64.9919755,17.5655934 63.5539867,19.0060122 C62.2269041,20.3353374 60.2514468,21 57.6693232,21 L50.0329106,21 C49.6847701,21 49.4025464,20.7172994 49.4025464,20.3685705 L49.4025464,4.90661939 C49.4025464,4.55789052 49.6847701,4.27518992 50.0329106,4.27518992 L57.672167,4.27518992 C60.2542906,4.27518992 62.2335395,4.94744866 63.5568305,6.26917772 C64.9948193,7.70864701 65.5010065,9.36365689 65.5010065,12.5815734 Z M62.0278417,12.5815734 C62.0278417,10.4394608 61.8922897,9.40923375 61.0533839,8.56891032 C60.3670926,7.88145929 59.2608744,7.54817847 57.6693232,7.54817847 L52.8766591,7.54817847 L52.8766591,17.7308095 L57.672167,17.7308095 C59.2637182,17.7308095 60.3708843,17.3965792 61.0562276,16.7091281 C61.8951334,15.8697542 62.0306854,14.8385777 62.0306854,12.6964651 L62.0278417,12.5815734 Z M71.1354201,20.3486307 L71.1354201,4.90661939 C71.1354201,4.55789052 70.8531965,4.27518992 70.5050559,4.27518992 L68.2945154,4.27518992 C67.9463749,4.27518992 67.6641512,4.55789052 67.6641512,4.90661939 L67.6641512,20.3486307 C67.6641512,20.6973595 67.9463749,20.9800601 68.2945154,20.9800601 L70.5078996,20.9800601 C70.6750826,20.9800601 70.8354182,20.9135347 70.9536345,20.7951187 C71.0718507,20.6767027 71.1382639,20.5160962 71.1382639,20.3486307 L71.1354201,20.3486307 Z M47.3673704,20.9800601 L45.0260175,20.9800601 C44.6975374,20.979769 44.3992336,20.7881019 44.2619971,20.4891593 L43.1851643,18.153345 L34.4956169,18.153345 L33.4168883,20.4901088 C33.2803327,20.7867675 32.9846754,20.9774185 32.6585554,20.9791106 L30.3058275,20.9791106 C30.0890206,20.9793064 29.8873274,20.867883 29.7718148,20.6841005 C29.6563023,20.5003181 29.6431823,20.26997 29.7370778,20.0742199 L36.846449,5.24654683 C37.2179255,4.48452913 37.9904867,4.00121636 38.8370729,4.00121636 C39.6836591,4.00121636 40.4562203,4.48452913 40.8276968,5.24654683 L47.937068,20.0723209 C48.0321467,20.2680196 48.0199091,20.4989713 47.9046839,20.6834889 C47.7894586,20.8680065 47.5874901,20.9800765 47.3702141,20.9800601 L47.3673704,20.9800601 Z M35.9146474,15.0607649 L41.7699255,15.0607649 L38.8484479,8.38660286 L35.9146474,15.0607649 Z M90.368639,20.9800601 L88.0225465,20.9800601 C87.6939968,20.9800065 87.3955761,20.7882642 87.2585261,20.4891593 L86.1835891,18.153345 L77.4940417,18.153345 L76.4162611,20.4901088 C76.2791557,20.7862885 75.9838404,20.9767189 75.6579281,20.9791106 L73.3052002,20.9791106 C73.0883933,20.9793064 72.8867001,20.867883 72.7711876,20.6841005 C72.655675,20.5003181 72.6425551,20.26997 72.7364505,20.0742199 L79.8458217,5.24654683 C80.2167789,4.48389798 80.9895208,4 81.8364456,4 C82.6833705,4 83.4561124,4.48389798 83.8270696,5.24654683 L90.9364408,20.0723209 C91.0315935,20.2681715 91.0192589,20.4993178 90.9038056,20.6838919 C90.7883523,20.868466 90.5860834,20.9804042 90.368639,20.9800601 Z M78.9130722,15.0607649 L84.7683503,15.0607649 L81.8478206,8.38660286 L78.9130722,15.0607649 Z" id="Shape" fill="#5F6368" fill-rule="nonzero"></path>
    </g>
</svg>